<svg width="38" height="39" viewBox="0 0 38 39" fill="none" xmlns="http://www.w3.org/2000/svg">
<path d="M19.1061 0.259277C8.82523 0.259277 0.481445 8.77347 0.481445 19.2642C0.481445 29.7549 8.82523 38.2691 19.1061 38.2691C29.3868 38.2691 37.7306 29.7549 37.7306 19.2642C37.7306 8.77347 29.4054 0.259277 19.1061 0.259277ZM24.6934 23.5023L19.2921 26.6761C18.6216 27.0752 17.8768 27.2652 17.1503 27.2652C16.4055 27.2652 15.679 27.0752 15.0086 26.6761C13.6676 25.8779 12.8668 24.4715 12.8668 22.8751V16.5085C12.8668 14.9311 13.6676 13.5057 15.0086 12.7075C16.3496 11.9093 17.9512 11.9093 19.3107 12.7075L24.7119 15.8813C26.0528 16.6795 26.8537 18.0859 26.8537 19.6823C26.8537 21.2787 26.0528 22.7041 24.6934 23.5023Z" fill="#D9D9D9"/>
</svg>
