<svg width="17" height="15" viewBox="0 0 17 15" fill="none" xmlns="http://www.w3.org/2000/svg">
<path d="M11.0577 1.95059L12.1238 4.32952C12.2675 4.65853 12.6531 4.97066 12.9782 5.03814L14.9063 5.39245C16.1388 5.62022 16.4262 6.61571 15.5415 7.61115L14.0368 9.2899C13.7873 9.56829 13.6436 10.1166 13.7268 10.5131L14.1578 12.5884C14.498 14.2249 13.7117 14.8661 12.4187 14.0056L10.6115 12.8077C10.2864 12.5884 9.742 12.5884 9.41687 12.8077L7.60972 14.0056C6.31671 14.8576 5.53034 14.2249 5.8706 12.5884L6.30159 10.5131C6.36964 10.1082 6.22597 9.55985 5.97645 9.28147L4.47176 7.60271C3.58709 6.61571 3.87442 5.62022 5.10691 5.38402L7.03507 5.02971C7.3602 4.97066 7.74583 4.65009 7.88949 4.32109L8.95563 1.94215C9.53785 0.659889 10.4754 0.659888 11.0577 1.95059Z" fill="white"/>
<path d="M5.47031 2.40504H0.93355C0.623538 2.40504 0.366455 2.11822 0.366455 1.77234C0.366455 1.42647 0.623538 1.13965 0.93355 1.13965H5.47031C5.78032 1.13965 6.0374 1.42647 6.0374 1.77234C6.0374 2.11822 5.78032 2.40504 5.47031 2.40504Z" fill="white"/>
<path d="M3.20193 14.2154H0.93355C0.623538 14.2154 0.366455 13.9286 0.366455 13.5827C0.366455 13.2368 0.623538 12.95 0.93355 12.95H3.20193C3.51194 12.95 3.76903 13.2368 3.76903 13.5827C3.76903 13.9286 3.51194 14.2154 3.20193 14.2154Z" fill="white"/>
<path d="M1.68968 8.31025H0.93355C0.623538 8.31025 0.366455 8.02343 0.366455 7.67756C0.366455 7.33168 0.623538 7.04486 0.93355 7.04486H1.68968C1.99969 7.04486 2.25677 7.33168 2.25677 7.67756C2.25677 8.02343 1.99969 8.31025 1.68968 8.31025Z" fill="white"/>
</svg>
